PathFileType	4	(X/Y/Z)	C:\Users\chris\Documents\GitHub\baseballds\vids\pitch5_Sports2D\pitch5_Sports2D_px_person03.trc
DataRate	CameraRate	NumFrames	NumMarkers	Units	OrigDataRate	OrigDataStartFrame	OrigNumFrames
30	30	13	22	m	30	55	149
Frame#	Time	Hip			RHip			RKnee			RAnkle			RBigToe			RSmallToe			RHeel			LHip			LKnee			LAnkle			LBigToe			LSmallToe			LHeel			Neck			Head			Nose			RShoulder			RElbow			RWrist			LShoulder			LElbow			LWrist		
		X1	Y1	Z1	X2	Y2	Z2	X3	Y3	Z3	X4	Y4	Z4	X5	Y5	Z5	X6	Y6	Z6	X7	Y7	Z7	X8	Y8	Z8	X9	Y9	Z9	X10	Y10	Z10	X11	Y11	Z11	X12	Y12	Z12	X13	Y13	Z13	X14	Y14	Z14	X15	Y15	Z15	X16	Y16	Z16	X17	Y17	Z17	X18	Y18	Z18	X19	Y19	Z19	X20	Y20	Z20	X21	Y21	Z21	X22	Y22	Z22
55	1.8333333333333333	1488.696211918565	467.3162153292036	0.0	1487.293557019529	467.5999670530583	0.0	1488.1942549130308	480.75339678306744	0.0	1490.1263062293333	493.4000286358179	0.0	1483.524752468881	496.4254934236015	0.0	1483.6251129860073	495.2269412842197	0.0	1491.795698151776	495.0810691284514	0.0	1489.8731945832178	467.6912829615393	0.0	1490.6342434320097	481.3250697562965	0.0	1491.841501254884	494.0893285731206	0.0	1486.6806673569258	496.7833097439607	0.0	1487.2566588993927	496.44642550096876	0.0	1493.836636318646	495.4698197831311	0.0	1489.1874732542094	448.16647114952553	0.0	1486.9620823949135	438.46634028702294	0.0	1485.285497025624	444.8010623454088	0.0	1488.095094054997	451.4428925985985	0.0	1488.0340361321653	459.0829229157975	0.0	1486.9129235675757	468.0899169486199	0.0	1491.7458360082514	450.7668754926033	0.0	1492.653332760411	459.3408064670725	0.0	1489.8079712950976	468.83442897158017	0.0
56	1.8666666666666667	1489.1845599887529	467.9961807174544	0.0	1487.8232049019425	468.2756756890691	0.0	1488.6672111739692	481.2732096069412	0.0	1490.5618580481587	493.82165174600897	0.0	1483.8074619518213	496.84248569424415	0.0	1483.9101901664314	495.665445252213	0.0	1492.2288176791048	495.4727413842906	0.0	1490.2090819710072	468.3303330742311	0.0	1490.8913516324503	481.93644115848696	0.0	1492.2645484817967	494.5680486250176	0.0	1487.1099081079226	497.276733110275	0.0	1487.4772069321496	497.031965485743	0.0	1494.3104214887144	495.9442778188065	0.0	1489.613736605015	448.9090310670234	0.0	1487.0333189401756	439.2702384721324	0.0	1485.442087707914	445.6320000699249	0.0	1488.727393114224	452.18398082547094	0.0	1489.1603969228959	459.80007593231153	0.0	1487.7928144039229	468.7246638480521	0.0	1492.0485711641513	451.53225805320403	0.0	1492.9992311390579	459.9051125735889	0.0	1490.0776030852003	469.36514982867527	0.0
57	1.9	1489.8503072764765	468.18898981251175	0.0	1488.6334347635811	468.4959335135765	0.0	1489.2877062697903	481.4220103734675	0.0	1491.0575445642387	494.1062946971538	0.0	1484.2278841691004	497.11218825812904	0.0	1484.3324926353596	495.9740084229559	0.0	1492.7531994855535	495.7836963050363	0.0	1490.8381751113766	468.5334223615799	0.0	1491.1752165121852	482.1164419452394	0.0	1492.59070149974	494.872419698706	0.0	1487.476932024342	497.5940102612607	0.0	1487.79214993727	497.4662058134603	0.0	1494.8079742245864	496.2549774152782	0.0	1490.1056351188322	449.03517774450205	0.0	1487.2538834437678	439.52277720121265	0.0	1485.6400507150092	445.9133205092689	0.0	1489.545921865053	452.2656905390909	0.0	1489.9718272151797	460.0881799560292	0.0	1488.3473558414362	468.98611236087083	0.0	1492.4262925117882	451.7013428928592	0.0	1493.284564179652	460.2125598362592	0.0	1490.5007239548868	469.6851309560944	0.0
58	1.9333333333333333	1490.4866563235116	468.14387492094016	0.0	1489.39343830085	468.4349593369621	0.0	1489.906488880784	481.48726273981197	0.0	1491.5354244302996	494.2898789928415	0.0	1484.8418413705122	497.33046648314513	0.0	1484.958293153519	496.2227536930392	0.0	1493.2815416191497	496.0933042752549	0.0	1491.4919782803215	468.50748271928205	0.0	1491.552978564764	482.1060742399844	0.0	1492.9383256816054	495.0033955238142	0.0	1487.7741356909298	497.85667311810585	0.0	1488.2146412203551	497.75542975608306	0.0	1495.2259148046564	496.46227768230824	0.0	1490.6752061048421	448.79074906856835	0.0	1487.6056868675125	439.5002829417949	0.0	1486.0279663689273	445.85676622318863	0.0	1490.3141294203574	452.08427720163013	0.0	1490.4043694298832	460.1731950552727	0.0	1488.7561870792579	469.13272678917673	0.0	1492.8845160375347	451.55990652182624	0.0	1493.6633088887565	460.3977527837915	0.0	1491.0429228176476	469.86628858521146	0.0
59	1.9666666666666666	1490.9773772773733	468.37098674969275	0.0	1489.9028726588922	468.644449807921	0.0	1490.3664442501588	481.8542711180377	0.0	1491.9225186214417	494.59035091780095	0.0	1485.3926909609875	497.66728201424064	0.0	1485.5603978369104	496.5690161423836	0.0	1493.732023094729	496.5349673488547	0.0	1491.904663505382	468.7889420779034	0.0	1492.0467922519442	482.3828883549141	0.0	1493.4619221210419	495.26167736207606	0.0	1488.0835820467596	498.2720655670666	0.0	1488.6590017689955	498.11544659586554	0.0	1495.6162389437932	496.82312107591974	0.0	1491.3408159307066	448.9425750004226	0.0	1488.1072052284703	439.9069941845478	0.0	1486.619580972566	446.2183511070633	0.0	1491.0048385581936	452.4064935387088	0.0	1490.9844430012813	460.5967147769958	0.0	1489.428789521991	469.58506569768304	0.0	1493.3796730582208	451.78083438842475	0.0	1494.1821582031175	460.799358804915	0.0	1491.55612737227	470.1662712817563	0.0
60	2.0	1491.3869280406739	468.845287501379	0.0	1490.285304912238	469.1824296042008	0.0	1490.7077193695031	482.3993846407762	0.0	1492.2976828437193	495.0837578109382	0.0	1485.70424577294	498.1485557805468	0.0	1485.9219628823678	497.0471800289635	0.0	1494.1234989932245	497.03106021048393	0.0	1492.1967861992487	469.35635743948285	0.0	1492.5553668109133	482.93494400104123	0.0	1493.967255565953	495.7800250069153	0.0	1488.419885528363	498.75165327743946	0.0	1489.0611798657965	498.55740141620663	0.0	1496.0291877387217	497.33171035403325	0.0	1492.014757562209	449.4846765816902	0.0	1488.892286953708	440.3928926033848	0.0	1487.3110002142041	446.74188848699	0.0	1491.6235414067514	453.0300368812822	0.0	1491.7623930481327	461.19854532751424	0.0	1490.274000336654	470.22634782972733	0.0	1493.874251129495	452.3327567086025	0.0	1494.678735616634	461.31356296425355	0.0	1491.951479889474	470.63868371136607	0.0
61	2.033333333333333	1491.7795516659112	469.16658569031057	0.0	1490.6749237861568	469.622740443249	0.0	1491.0641011562366	482.7881266770296	0.0	1492.7617512367974	495.616687090582	0.0	1485.9501824770946	498.6296289065023	0.0	1486.1559835737808	497.5350201566903	0.0	1494.5221156108273	497.4360197173294	0.0	1492.5746838066223	469.7607344201025	0.0	1492.944268414587	483.4151007105745	0.0	1494.2435210795288	496.3364381049948	0.0	1488.696805589643	499.11319183120503	0.0	1489.451188728948	498.95133205737534	0.0	1496.4184176341134	497.7710060197692	0.0	1492.5225834204816	449.72397670785915	0.0	1489.8248747668708	440.1452222647963	0.0	1487.9669005520432	446.5834171609883	0.0	1492.0910208669113	453.1838344095553	0.0	1492.328297463921	461.4362628008606	0.0	1490.9922982104358	470.6828607235409	0.0	1494.2746847771468	452.62291265590056	0.0	1495.0042329283551	461.59146798974746	0.0	1492.29117026036	471.1063595409988	0.0
62	2.0666666666666664	1492.0872695104129	469.22301671781304	0.0	1490.9700689527763	469.744373282747	0.0	1491.4505834010397	482.9913519216833	0.0	1493.2601055961318	496.0574393090275	0.0	1486.347788963297	499.00579630245	0.0	1486.4942622213086	497.9377814627584	0.0	1494.9054414554598	497.77389533911764	0.0	1492.9274069331855	469.8386183136696	0.0	1493.2189432775979	483.6886588888532	0.0	1494.4613016350968	496.75741810101505	0.0	1488.9992685448979	499.41584297429273	0.0	1489.950676636887	499.2766634877398	0.0	1496.7298532840944	498.1178076420865	0.0	1492.8051486034574	449.42781493556754	0.0	1490.5262466419763	439.3235524965062	0.0	1488.5441210306103	445.8171766811371	0.0	1492.4360836353599	452.79811152230434	0.0	1492.641164957888	461.2486798844709	0.0	1491.5641502490498	470.90677456975646	0.0	1494.4893767321546	452.4617798995809	0.0	1495.2082444377945	461.57498941553	0.0	1492.6750196223873	471.4342361863698	0.0
63	2.1	1492.298062943426	469.2529099135727	0.0	1491.1704270974074	469.75045821839007	0.0	1491.8194140605488	483.1607900887616	0.0	1493.6472320350067	496.3883484361621	0.0	1486.8670304919565	499.30965024943157	0.0	1486.963657367358	498.2793079861975	0.0	1495.2048787670865	498.10854434283846	0.0	1493.1079323758033	469.8302322097391	0.0	1493.4532170143168	483.8537581992385	0.0	1494.780776504666	497.07589487168883	0.0	1489.373248937216	499.75045293678227	0.0	1490.5261533494518	499.5649653403624	0.0	1496.968962698704	498.4827508559358	0.0	1493.012601117654	449.0734112219422	0.0	1490.9417260625048	438.78580274704353	0.0	1489.0603566038264	445.2917882443082	0.0	1492.8316375351174	452.45864132485224	0.0	1493.0030524481954	460.99170957130536	0.0	1492.0395105161576	471.0802976818884	0.0	1494.6112638305299	452.2326342607508	0.0	1495.3515849090265	461.46937311131546	0.0	1493.0849355751136	471.64201916217894	0.0
64	2.1333333333333333	1492.570317247697	469.391318327863	0.0	1491.5080949062715	469.8587880062994	0.0	1492.1486350687678	483.31095341716	0.0	1493.8889740216248	496.6384245341754	0.0	1487.3404420828215	499.6041893732986	0.0	1487.4140868452141	498.5947942783624	0.0	1495.4673876233028	498.4226649993723	0.0	1493.2864790545814	469.94505529669357	0.0	1493.6635305729073	483.96701319634707	0.0	1495.0727261484747	497.33325766010864	0.0	1489.6334563770076	500.05957882734117	0.0	1490.9679555235446	499.8553705038143	0.0	1497.193781840002	498.84692707328685	0.0	1493.3657049960887	449.0214058786742	0.0	1491.4447839524264	438.84640882240564	0.0	1489.5298872859355	445.3616973926896	0.0	1493.3160241191597	452.4317902775897	0.0	1493.3803308821944	460.8814249943178	0.0	1492.265600681078	471.25336297518425	0.0	1494.8416189949921	452.22272112661267	0.0	1495.35352418487	461.41803648058544	0.0	1493.3510837371819	471.77194303266214	0.0
65	2.1666666666666665	1493.0055315432237	469.5188733043981	0.0	1492.0643650511488	470.0282781954361	0.0	1492.4370654119614	483.41850229268607	0.0	1494.1244504116708	496.89006068640396	0.0	1487.6876099723518	499.9125901013845	0.0	1487.7403891509218	498.9156440568671	0.0	1495.8238210966176	498.738592834745	0.0	1493.6394246482105	470.1222336614772	0.0	1493.8528118894967	484.0292782256372	0.0	1495.264991849897	497.56283226186576	0.0	1489.687379604109	500.32967024009446	0.0	1491.1794452605159	500.21713717385506	0.0	1497.4813376617187	499.16472116002285	0.0	1493.9321282504686	449.03637098941715	0.0	1492.2507341628732	439.06736964550475	0.0	1489.9947641928954	445.5544208568792	0.0	1493.8129293800075	452.37640824260507	0.0	1493.631655954594	460.8437286726253	0.0	1492.2419419479565	471.39389135501864	0.0	1495.2074156329388	452.21698923084364	0.0	1495.3039466181026	461.4028674010727	0.0	1493.3821926943735	471.8542347936718	0.0
66	2.2	1493.4837647185996	469.56383997294256	0.0	1492.616596539704	470.1557901990861	0.0	1492.7011203973063	483.5743348409945	0.0	1494.4782456148625	497.21923574869595	0.0	1487.9902804210087	500.22364111002616	0.0	1487.998395633786	499.3019714750259	0.0	1496.2928518097274	499.1308583610937	0.0	1494.0309720551684	470.2358690522007	0.0	1494.060077233467	484.1099567930747	0.0	1495.5009013937106	497.82828932363674	0.0	1489.767617922088	500.6413117553718	0.0	1491.2970253890276	500.6113083238585	0.0	1497.8682519788679	499.472506306515	0.0	1494.54658329097	448.8183834074454	0.0	1493.0893062881432	439.0147759408653	0.0	1490.4791669789206	445.38020254651946	0.0	1494.2954426799424	452.03951022222157	0.0	1493.9777655618534	460.75981965650203	0.0	1492.3127814327188	471.51794968893137	0.0	1495.545607916018	451.958887380067	0.0	1495.5367214593957	461.38040098411165	0.0	1493.398363072251	471.9910462607125	0.0
67	2.2333333333333334	1493.83877663076	469.6008065994299	0.0	1492.9064652907423	470.2322969124998	0.0	1492.9166848041336	483.74950574451424	0.0	1494.911616901551	497.5772037927585	0.0	1488.3644725814427	500.51883889518854	0.0	1488.2824661383647	499.7225449578423	0.0	1496.7745980396387	499.5475699455308	0.0	1494.300155528371	470.2732917112293	0.0	1494.3391648742975	484.22361373730007	0.0	1495.9001923371995	498.1258749538164	0.0	1490.1254782512692	500.99945985809075	0.0	1491.5263054185007	500.91711756149846	0.0	1498.3077634563185	499.7587122857039	0.0	1494.952330679454	448.47374191481833	0.0	1493.6067831107152	438.71530494367977	0.0	1490.9340610391655	444.92360851085425	0.0	1494.6921807769636	451.62676482617087	0.0	1494.5043731119345	460.54683926413986	0.0	1492.524997558802	471.44660193735456	0.0	1495.7433050001805	451.57873336258336	0.0	1496.0997370805635	461.2672423454825	0.0	1493.6138332500232	472.11800131842534	0.0
